<?xml version="1.0" encoding="UTF-8" standalone="no"?>
<!-- Created with Inkscape (http://www.inkscape.org/) -->

<svg
   width="210mm"
   height="297mm"
   viewBox="0 0 210 297"
   version="1.1"
   id="svg1"
   xml:space="preserve"
   inkscape:version="1.3.1 (9b9bdc1480, 2023-11-25, custom)"
   sodipodi:docname="logo.svg"
   xmlns:inkscape="http://www.inkscape.org/namespaces/inkscape"
   xmlns:sodipodi="http://sodipodi.sourceforge.net/DTD/sodipodi-0.dtd"
   xmlns:xlink="http://www.w3.org/1999/xlink"
   xmlns="http://www.w3.org/2000/svg"
   xmlns:svg="http://www.w3.org/2000/svg"><sodipodi:namedview
     id="namedview1"
     pagecolor="#ffffff"
     bordercolor="#666666"
     borderopacity="1.0"
     inkscape:showpageshadow="2"
     inkscape:pageopacity="0.0"
     inkscape:pagecheckerboard="0"
     inkscape:deskcolor="#d1d1d1"
     inkscape:document-units="mm"
     inkscape:zoom="0.88063959"
     inkscape:cx="315.11188"
     inkscape:cy="386.6508"
     inkscape:window-width="1636"
     inkscape:window-height="899"
     inkscape:window-x="0"
     inkscape:window-y="0"
     inkscape:window-maximized="1"
     inkscape:current-layer="layer1" /><defs
     id="defs1"><linearGradient
       id="linearGradient14"
       inkscape:collect="always"><stop
         style="stop-color:#baba00;stop-opacity:1;"
         offset="0"
         id="stop14" /><stop
         style="stop-color:#5a5a00;stop-opacity:1;"
         offset="1"
         id="stop15" /></linearGradient><linearGradient
       inkscape:collect="always"
       xlink:href="#linearGradient14"
       id="linearGradient15"
       x1="67.266845"
       y1="109.22335"
       x2="106.53635"
       y2="109.22335"
       gradientUnits="userSpaceOnUse"
       gradientTransform="matrix(0.84851604,0,0,0.84851604,13.157802,16.545586)" /></defs><g
     inkscape:label="Layer 1"
     inkscape:groupmode="layer"
     id="layer1"><path
       style="fill:#a3a300;fill-opacity:1"
       d="m 81.336276,147.48832 c -1.73854,-0.62698 -4.0539,-1.73755 -5.02038,-2.40804 -0.34442,-0.23894 -0.83534,-0.25863 -1.85009,-0.0742 -2.839714,0.51614 -6.187594,-0.73676 -8.380694,-3.13636 -1.33682,-1.4627 -1.33838,-1.46651 -1.17252,-2.8777 0.20755,-1.76594 0.0246,-2.51039 -0.88159,-3.58734 -1.3111,-1.55815 -4.109695,-2.28656 -6.931716,-1.80418 -0.960202,0.16413 -1.983948,0.41834 -2.274989,0.5649 -1.164152,0.58625 -2.874551,2.19738 -3.621486,3.4113 -0.78169,1.27041 -0.803273,1.28315 -2.17402,1.28315 -4.098462,0 -7.819228,-2.49266 -9.127448,-6.11475 -0.208874,-0.57832 -0.462927,-0.71911 -1.560255,-0.86467 -1.912778,-0.25374 -4.393224,-1.6027 -6.058585,-3.29488 -1.623332,-1.64948 -2.824266,-3.85281 -3.917948,-7.1882 -0.818065,-2.49485 -2.704299,-7.03816 -3.761119,-9.05929 -1.205731,-2.30591 -1.125177,-3.32044 0.541171,-6.81571 1.398056,-2.93252 2.294455,-5.14528 3.714154,-9.168402 1.844972,-5.22825 4.911422,-8.27222 9.179123,-9.11184 1.421152,-0.2796 1.550242,-0.36874 2.008831,-1.38724 1.61565,-3.58824 5.112859,-5.732524 9.349455,-5.732524 0.84928,0 1.043485,0.136857 1.725647,1.216064 1.805345,2.85614 4.343656,4.21629 7.803521,4.18153 2.463695,-0.0247 4.112374,-0.69376 5.188074,-2.10524 0.68271,-0.89583 0.76505,-1.2125 0.76505,-2.942234 0,-1.904516 0.02,-1.961556 1.1443,-3.266874 0.62936,-0.730682 1.75308,-1.676204 2.49715,-2.101159 1.68861,-0.964408 4.397184,-1.477948 5.927994,-1.123942 1.03366,0.239035 1.27854,0.168112 3.90675,-1.131492 3.3615,-1.662206 4.81612,-1.987069 8.89736,-1.987069 2.4103,0 3.50791,0.124854 4.91681,0.559296 1.8977,0.585165 3.96539,1.541259 5.1692,2.390218 0.61858,0.436241 0.87293,0.463787 1.98378,0.214839 2.741124,-0.614298 6.410434,0.735352 8.623184,3.171794 1.22746,1.351541 1.25771,1.424993 1.09429,2.656961 -0.46543,3.508582 1.69671,5.525792 6.03939,5.634532 1.87191,0.0469 2.39887,-0.0443 3.65458,-0.63246 1.81454,-0.84987 3.10189,-1.95976 4.09445,-3.53003 0.85822,-1.357752 1.17944,-1.431623 3.98082,-0.915473 3.31889,0.611499 5.48946,2.218683 6.91104,5.117223 0.67764,1.38169 0.73718,1.42846 2.17994,1.7123 2.05314,0.40393 3.85411,1.4089 5.62925,3.14119 1.76525,1.72265 2.72844,3.42792 3.99345,7.07023 0.98246,2.828742 2.91795,7.476722 4.01469,9.641022 0.91033,1.79645 0.85816,2.99463 -0.23278,5.34663 -1.87477,4.04187 -2.80893,6.28122 -3.74026,8.96609 -1.61727,4.66233 -3.22221,7.08707 -5.83577,8.81664 -1.28959,0.85341 -3.66548,1.75775 -4.61798,1.75775 -0.56306,0 -0.78792,0.22955 -1.2702,1.29668 -1.45673,3.22325 -4.41931,5.21838 -8.11999,5.46834 l -2.10394,0.14211 -1.19315,-1.66645 c -2.07377,-2.89639 -5.25845,-4.23253 -8.74851,-3.67047 -3.27713,0.52776 -4.96805,2.55138 -4.65273,5.56817 0.15429,1.47615 0.14536,1.50034 -0.99156,2.68682 -2.32623,2.42763 -5.61966,3.7035 -8.294574,3.21332 -1.48318,-0.2718 -1.5574,-0.25622 -3.10698,0.65228 -3.10853,1.82248 -4.8136,2.2517 -9.39271,2.36444 -3.82674,0.0942 -4.22133,0.0576 -5.89948,-0.54761 z"
       id="path1" /><path
       id="path11"
       style="fill:#ffffff;fill-opacity:1"
       d="m 85.861586,71.407883 c -2.34814,-0.0129 -4.66709,0.57249 -6.74366,1.663534 -1.3551,0.546609 -2.63003,1.565247 -4.14682,1.531233 -2.12127,-0.481216 -4.39817,-0.01851 -6.286289,1.022016 -1.247648,0.831775 -2.306034,1.780224 -3.094604,3.032671 -0.483787,1.535629 0.248493,3.378296 -0.820423,4.756405 -1.198906,1.901752 -3.531059,2.642843 -5.678805,2.630836 -2.827808,0.130611 -5.758707,-0.960376 -7.538853,-3.219142 -0.626285,-0.638536 -0.93077,-1.553375 -1.626092,-2.114819 -3.524982,-0.331703 -7.267342,1.431432 -8.997048,4.582513 -0.483406,0.858996 -0.782021,2.067375 -1.913108,2.271003 -1.922679,0.349397 -3.915966,1.020218 -5.441177,2.363098 -2.599613,2.150264 -3.8452,5.391482 -4.900398,8.493801 -1.064821,3.096578 -2.468112,6.055708 -3.812722,9.035678 -0.582179,1.27047 -0.788246,2.79106 -0.07407,4.05644 1.882038,3.68285 3.349885,7.56452 4.710601,11.46718 1.053135,2.86193 2.851131,5.57018 5.561932,7.09166 1.269111,0.80685 2.72542,1.22926 4.200366,1.44365 1.154058,0.2055 1.184519,1.55212 1.748023,2.34612 1.783926,3.07891 5.521525,4.84006 9.026976,4.39378 0.704877,-0.74048 1.122613,-1.73787 1.894919,-2.44085 1.139989,-1.17384 2.461624,-2.34066 4.151157,-2.55119 2.703963,-0.64202 5.910025,-0.47388 8.055487,1.48033 1.070893,0.97602 1.570924,2.45385 1.342426,3.88074 -0.07483,0.75302 -0.314729,1.64243 0.378184,2.19636 2.071961,2.63411 5.563529,4.32164 8.928898,3.60201 0.82013,-0.19624 1.6781,-0.0114 2.32594,0.53268 1.90216,1.03505 3.88676,2.01493 6.01043,2.48861 2.18779,0.20931 4.43073,0.049 6.58057,-0.0575 2.14875,-0.10797 4.34126,-0.78752 6.08199,-1.84832 1.08735,-0.59614 2.22481,-1.49364 3.54687,-1.1286 3.354014,0.76114 6.755444,-1.07728 8.887924,-3.58651 0.68622,-0.73499 0.10301,-1.78463 0.24444,-2.66694 -0.006,-2.14308 1.52782,-4.08248 3.5484,-4.71944 3.36564,-1.22206 7.41269,-0.35008 9.8603,2.30105 0.76894,0.78482 1.35212,1.72315 2.00191,2.60348 2.00112,-0.0947 4.06609,-0.23645 5.8597,-1.29284 1.86722,-0.99738 3.15056,-2.777 3.96843,-4.68763 0.29845,-0.68739 1.02598,-0.97625 1.73437,-0.94141 3.01182,-0.63787 5.79623,-2.46167 7.36075,-5.14637 1.89407,-3.09776 2.65892,-6.7003 4.18762,-9.96885 0.77013,-1.88522 1.75769,-3.68296 2.43991,-5.60353 0.36265,-0.98598 0.25307,-2.27512 -0.30349,-3.24859 -1.92652,-3.88834 -3.4182,-7.967684 -4.93139,-12.028235 -1.22194,-3.227257 -3.75247,-6.009794 -6.98972,-7.273955 -1.08084,-0.51939 -2.59789,-0.258697 -3.36574,-1.326206 -0.79672,-1.368584 -1.44528,-2.885801 -2.71098,-3.910222 -1.82915,-1.595225 -4.33038,-2.129239 -6.68914,-2.261741 -0.98436,0.100712 -1.19622,1.291449 -1.82831,1.883912 -1.35655,1.679333 -3.30211,2.905932 -5.40193,3.401366 -2.31893,0.216495 -4.8775,0.128905 -6.86328,-1.232422 -1.62435,-1.116147 -2.14638,-3.252582 -1.80367,-5.112561 0.28622,-1.006105 -0.72997,-1.686317 -1.25201,-2.311433 -2.16526,-2.141558 -5.42695,-3.420127 -8.452084,-2.618898 -1.24373,0.340138 -2.13076,-0.785671 -3.16592,-1.230474 -2.3417,-1.209104 -4.91347,-2.120753 -7.58413,-2.033274 -0.74096,-0.01563 -1.48174,7.52e-4 -2.22266,0.0098 z" /><path
       id="path12"
       style="fill:#787834;fill-opacity:1"
       d="m 86.185806,72.450851 c -1.79257,0.04132 -3.67572,0.273312 -5.21947,0.938978 -1.97282,0.698547 -3.71944,2.20914 -5.88433,2.249699 -1.21114,-0.13583 -2.440202,-0.298843 -3.637318,0.04598 -1.950548,0.425656 -3.705564,1.666625 -4.79529,3.328651 -0.406866,1.027782 -0.02578,2.186151 -0.298306,3.255318 -0.351184,2.086397 -2.174035,3.650678 -4.098479,4.317734 -3.79612,1.240207 -8.345109,0.3579 -11.115207,-2.610624 -0.720877,-0.643152 -1.084197,-1.59511 -1.748475,-2.262067 -3.329257,-0.09448 -6.738998,1.847195 -7.988281,5.003906 -0.493197,1.262163 -1.787444,1.996232 -3.09961,2.070313 -2.606495,0.551187 -4.916429,2.234164 -6.250362,4.539201 -1.903636,3.115619 -2.623574,6.75373 -4.196907,10.05666 -0.786868,1.94733 -1.884047,3.78829 -2.434573,5.81997 -0.211944,1.59159 0.97091,2.86036 1.487539,4.27114 1.608002,3.43898 2.773086,7.05913 4.184434,10.57664 1.473602,3.20913 4.433115,5.90584 8.024323,6.35358 1.028652,0.12043 1.903444,0.80281 2.269963,1.77069 1.16319,3.24982 4.713705,5.31737 8.10699,5.05938 1.511836,-2.24281 3.530983,-4.44251 6.287109,-5.02343 2.934027,-0.63611 6.303248,-0.4975 8.728318,1.46736 1.81771,1.32329 2.414001,3.78105 1.92012,5.89787 0.111423,0.78599 0.940773,1.22882 1.414062,1.80859 1.965351,1.76181 4.782025,2.57907 7.36133,1.90235 1.70039,-0.11874 2.99017,1.21572 4.48565,1.79311 1.85044,0.9426 3.90415,1.57907 6.00179,1.39078 3.02164,-0.0644 6.22848,0.0108 8.94705,-1.51982 1.41034,-0.68972 2.75182,-1.86631 4.43107,-1.65644 1.123614,0.18385 2.281754,0.35692 3.402904,0.0227 1.96723,-0.47341 3.69548,-1.70426 4.97763,-3.24716 0.0767,-1.04844 -0.22602,-2.103 0.0948,-3.15017 0.54672,-2.57243 2.9,-4.46738 5.44373,-4.85692 4.02015,-0.89957 8.47939,0.85559 10.77201,4.28834 0.30902,0.39456 0.52144,1.10394 1.15569,0.87472 2.47869,-0.10084 5.10699,-0.98153 6.57288,-3.10315 0.74989,-0.91381 1.06226,-2.10901 1.80854,-3.0118 1.03712,-0.95218 2.58463,-0.65096 3.77379,-1.29906 2.62068,-1.0309 4.67564,-3.22052 5.73244,-5.81047 1.45264,-3.2312 2.40808,-6.66321 3.96673,-9.85042 0.66418,-1.55871 1.638,-3.07335 1.79778,-4.78687 -0.14318,-1.58224 -1.234,-2.85731 -1.733,-4.33144 -1.5824,-3.46625 -2.71085,-7.120137 -4.25454,-10.599477 -1.5149,-2.8594 -4.23994,-5.247956 -7.51172,-5.726562 -1.14028,-0.23527 -2.16736,-0.993658 -2.56086,-2.112487 -0.8634,-1.725993 -2.12679,-3.399324 -4.01936,-4.049682 -1.26153,-0.519715 -2.71423,-0.786693 -3.99986,-0.781191 -0.57068,0.645848 -0.9168,1.466758 -1.58886,2.034948 -1.93253,2.056739 -4.70111,3.447614 -7.56816,3.281885 -2.52767,0.0045 -5.36601,-0.679019 -6.9137,-2.839737 -0.99109,-1.452781 -1.20372,-3.315587 -0.9156,-5.020064 -0.78301,-1.260759 -2.0311,-2.204366 -3.33399,-2.890625 -1.71997,-0.871341 -3.7448,-1.071083 -5.599884,-0.561448 -1.69081,0.109918 -2.846,-1.368041 -4.35339,-1.863467 -2.09105,-1.009119 -4.40414,-1.573888 -6.7326,-1.458726 -0.43216,-0.01085 -0.86435,0.0015 -1.29655,0.0028 z" /><path
       id="path13"
       style="fill:#ffffff;fill-opacity:1;opacity:1"
       d="m 86.703386,74.027023 c -2.65729,-0.05998 -5.31136,0.620194 -7.58551,2.001724 -1.70897,0.916838 -3.70182,1.47004 -5.6357,1.05412 -2.085588,-0.114663 -4.227818,0.906113 -5.374495,2.666812 -0.113651,1.692454 0.0043,3.539697 -1.041816,4.989795 -1.74647,2.870464 -5.288893,4.074135 -8.513594,3.978233 -3.921725,-0.04323 -7.863663,-2.046011 -9.938731,-5.409434 -2.624819,0.21841 -5.107172,1.970356 -5.972656,4.496094 -0.8734,1.713864 -2.822869,2.478723 -4.629867,2.701209 -2.850702,0.800082 -4.834241,3.350467 -5.789336,6.047819 -1.349688,3.267818 -2.403002,6.779035 -4.039735,9.976135 -0.46039,1.08051 -1.14893,2.17039 -1.138718,3.37054 0.420433,1.46822 1.375333,2.70797 1.858384,4.15459 1.597119,3.48611 2.56156,7.24523 4.347989,10.64391 1.454819,2.32167 3.95462,4.00325 6.704929,4.26351 1.685239,0.38847 2.739333,1.95163 3.305758,3.47761 1.08193,1.91221 3.225073,3.13191 5.405987,3.21234 1.889544,-2.73243 4.799635,-4.99792 8.212506,-5.23932 3.571767,-0.50707 7.659687,0.40913 9.951556,3.38384 1.14186,1.57983 1.556726,3.62797 1.251953,5.54102 1.592407,2.03763 4.38454,3.03815 6.903866,2.41555 2.18677,-0.30462 3.94484,1.31067 5.81879,2.12938 1.9302,0.9601 4.12788,1.16843 6.25075,0.96921 2.75295,-2.9e-4 5.65951,-0.31197 7.9711,-1.94304 1.5219,-0.93701 3.38466,-1.54737 5.162154,-1.03848 2.14789,0.28034 4.23893,-0.84814 5.65897,-2.39394 -0.23118,-2.25774 0.33035,-4.66882 1.94669,-6.33011 2.63176,-2.85548 6.98337,-3.46662 10.59262,-2.43938 2.74831,0.7787 5.24645,2.52108 6.8103,4.92574 2.23335,-0.15587 4.62292,-1.18951 5.57179,-3.35114 0.67583,-1.41229 1.58919,-3.01399 3.28563,-3.29145 1.61168,-0.33946 3.26917,-0.76152 4.53631,-1.87779 1.96061,-1.54632 2.9463,-3.92042 3.74912,-6.20933 1.30376,-3.43779 2.62203,-6.87588 4.25742,-10.17207 0.42185,-0.84956 0.44499,-1.86808 -0.10525,-2.66361 -1.8992,-3.73587 -3.18712,-7.7309 -4.78181,-11.596033 -0.69612,-1.73414 -1.67494,-3.401733 -3.20543,-4.52678 -1.29228,-1.06804 -2.91111,-1.609302 -4.5363,-1.897743 -1.67706,-0.559084 -2.72151,-2.119053 -3.38867,-3.667968 -0.89076,-1.578579 -2.54981,-2.598599 -4.32656,-2.843913 -0.46327,-0.07113 -1.08241,-0.347804 -1.26914,0.263834 -2.36697,3.197854 -6.40807,5.248712 -10.3892,4.857019 -3.06914,-0.11426 -6.41388,-1.380171 -7.91354,-4.233972 -0.75143,-1.452968 -0.99561,-3.136991 -0.83007,-4.755859 -1.64936,-2.119662 -4.62585,-3.100106 -7.201184,-2.306641 -2.25796,0.157238 -3.87002,-1.715651 -5.89247,-2.356917 -1.89667,-0.828417 -4.00271,-1.052624 -6.05479,-0.975114 z" /><path
       style="fill:#000000;stroke-width:0.722434"
       d="m 138.24232,41.106072 c 2.20299,-0.704807 4.38686,-2.623633 5.93708,-5.21653 0.95429,-1.596127 2.10552,-4.21806 1.92294,-4.379511 -0.0752,-0.06662 -0.55124,-0.258242 -1.05763,-0.425927 l -0.92071,-0.304874 -0.28925,0.709547 c -1.54736,3.795869 -3.40775,6.1675 -5.66085,7.216484 -1.38639,0.645466 -3.28429,0.649 -4.65952,0.0087 -2.37027,-1.103644 -4.29786,-3.712059 -5.80374,-7.853621 -1.4141,-3.889252 -3.2515,-6.751213 -5.35152,-8.335707 -4.30451,-3.247789 -9.54957,-1.97472 -12.93193,3.138805 -1.0016,1.514254 -2.43135,4.638763 -2.29052,5.005688 0.0785,0.204608 1.82858,0.776855 1.92635,0.629891 0.0196,-0.031 0.52035,-1.045557 1.11051,-2.254546 1.17684,-2.41099 2.16815,-3.730749 3.6256,-4.826784 2.9959,-2.253037 6.66538,-1.371905 9.2049,2.210304 1.0741,1.515135 1.71436,2.798245 2.63663,5.283817 1.90477,5.133561 4.49566,8.261257 7.75102,9.356965 1.47084,0.495071 3.37415,0.509716 4.85064,0.03735 z"
       id="path6" /><path
       style="fill:none;stroke:url(#linearGradient15);stroke-width:1.92189;stroke-linecap:butt;stroke-linejoin:miter;stroke-dasharray:none;opacity:1"
       d="m 71.123479,109.31286 c 1.540694,-3.74506 3.98896,-8.06277 7.07343,-8.06277 7.240627,0 9.492394,15.94653 16.385651,15.94653 3.513844,0 4.562788,-1.66685 8.06919,-7.74011"
       id="path14"
       sodipodi:nodetypes="cssc" /></g></svg>
